<svg viewBox="0 0 15 15" xmlns="http://www.w3.org/2000/svg">
 <path d="m12.91 0c-1.061 0.01567-2.097 0.725-2.609 2l0.001953 0.003906-0.9004-0.001953-0.4004 1h1.051c-0.0406 0.332-0.0406 0.668 0 1h-0.6484l-0.4023 1h1.303c0.817 2.04 2.999 2.639 4.459 1.219l-0.5137-0.916c-0.873 1.09-2.19 0.8293-2.84-0.3027h1.619l0.4004-1h-2.359c-0.0496-0.329-0.0496-0.671 0-1h2.76l0.3984-1h-2.82c0.745-1.31 2.159-1.252 2.939-0.2852 0 0 0.3936-0.9578 0.3926-0.9688-0.5475-0.5175-1.193-0.7575-1.83-0.748zm-6.408 2.998c-0.18 0-0.3607 0.08672-0.4707 0.2617l-4.779 8.74h-0.75c-0.28 0-0.5 0.22-0.5 0.5v1c0 0.28 0.22 0.5 0.5 0.5h12c0.28 0 0.5-0.22 0.5-0.5v-1c0-0.28-0.22-0.5-0.5-0.5h-0.75l-4.779-8.74c-0.11-0.175-0.2907-0.2617-0.4707-0.2617zm0 4.002 2.5 5h-5l2.5-5z"/>
</svg>
