<svg xmlns="http://www.w3.org/2000/svg" viewBox="0 0 15 15" >
  <path d="m4 3.5c-0.5 0-1 0.5-1 1v2.5h-0.5v-1.25c0-0.41421-0.39645-0.75-0.75-0.75s-0.75 0.33579-0.75 0.75v1.25h-0.5c-0.27614 0-0.5 0.2643-0.5 0.5s0.22386 0.5 0.5 0.5h0.5v1.25c0 0.41421 0.39645 0.75 0.75 0.75s0.75-0.33579 0.75-0.75v-1.25h0.5v2.5c0 0.5 0.5 1 1 1s1-0.5 1-1v-2.5h5v2.5c0 0.5 0.5 1 1 1s1-0.5 1-1v-2.5h0.5v1.25c0 0.41421 0.39645 0.75 0.75 0.75s0.75-0.33579 0.75-0.75v-1.25h0.5c0.27614 0 0.5-0.2643 0.5-0.5s-0.22386-0.5-0.5-0.5h-0.5v-1.25c0-0.41421-0.39645-0.75-0.75-0.75s-0.75 0.33579-0.75 0.75v1.25h-0.5v-2.5c0-0.5-0.5-1-1-1s-1 0.5-1 1v2.5h-5v-2.5c0-0.48325-0.5-1-1-1z"/>
</svg>
