<svg viewBox="0 0 15 15" xmlns="http://www.w3.org/2000/svg">
 <path d="m13 0.25-1.75 1.75v1l-2.25 2.25-0.75-0.25-1.25 3 3-1.25-0.25-0.75 2.25-2.25h1l1.75-1.75h-1.75zm-5.5 0.25c-3.8541 0-7 3.1459-7 7 0 3.8541 3.1459 7 7 7 3.8541 0 7-3.1459 7-7 0-1.1142-0.26354-2.1686-0.73047-3.1055l-0.35547 0.35547h-1l-0.46289 0.46289c0.35058 0.68457 0.54883 1.4612 0.54883 2.2871 0 2.7733-2.2267 5-5 5-2.7733 0-5-2.2267-5-5 0-2.7733 2.2267-5 5-5 0.82589 0 1.6025 0.19824 2.2871 0.54883l0.46289-0.46289v-1l0.35547-0.35547c-0.93691-0.46692-1.9913-0.73047-3.1055-0.73047zm0 3.5c-1.9241 0-3.5 1.5759-3.5 3.5s1.5759 3.5 3.5 3.5 3.5-1.5759 3.5-3.5c0-0.00176 3e-6 -0.0041 0-0.00586l-1.5527 0.4668c-0.20518 0.88784-0.99249 1.5391-1.9473 1.5391-1.1191 0-2-0.88096-2-2 0-0.95478 0.65123-1.7421 1.5391-1.9473l0.4668-1.5527c-0.00176-2.6e-6 -0.0041 0-0.00586 0z"/>
</svg>
