<svg xmlns="http://www.w3.org/2000/svg" viewBox="0 0 15 15">
  <path d="M 7.5,0.99 A 4.5,4.5 0 0 0 3,5.49 4.5,4.5 0 0 0 7.5,9.99 4.5,4.5 0 0 0 12,5.49 4.5,4.5 0 0 0 7.5,0.99 Z M 6.5,2 6.64,2.35 H 7 L 6.71,2.59 6.86,3 6.5,2.76 6.14,3 6.29,2.59 6,2.35 H 6.36 Z M 5,2.94 5.29,3.63 H 6 L 5.43,4.11 5.71,4.94 5,4.46 4.29,4.94 4.57,4.11 4,3.63 H 4.71 Z M 7,4.5 7.14,4.85 H 7.5 L 7.21,5.09 7.36,5.5 7,5.26 6.64,5.5 6.79,5.09 6.5,4.85 H 6.86 Z M 4.36,10 H 3 a 1,1 0 0 0 -1,1 1,1 0 0 0 1,1 h 9 a 1,1 0 0 0 1,-1 1,1 0 0 0 -1,-1 H 10.64 A 5.5,5.5 0 0 1 7.5,10.99 5.5,5.5 0 0 1 4.36,10 Z M 2,12 h 11 a 1,1 0 0 1 1,1 1,1 0 0 1 -1,1 H 2 A 1,1 0 0 1 1,13 1,1 0 0 1 2,12 Z" />
</svg>
