<svg xmlns="http://www.w3.org/2000/svg" viewBox="0 0 15 15">
  <path d="M 15,2.53 V 0 c -0.41,0.04 -1.52,0.09 -1.66,0.1 -0.14,0.01 -1.32,0.08 -1.41,0.08 -0.09,0 -0.33,0.03 -0.43,0.05 C 11.39,0.25 9.66,0.57 9.45,0.61 9.24,0.66 7.05,1.05 6.93,1.06 6.81,1.07 6.44,1.17 6.34,1.24 6.28,1.29 5.19,2.03 4.81,2.29 4.5,2.49 4.51,2.98 4.62,3.15 4.74,3.31 5.09,3.52 5.49,3.3 5.9,3.08 6.68,2.45 6.85,2.37 7.03,2.3 9.44,1.93 9.52,1.91 c 0.08,-0.01 0.28,-0.03 0.42,-0.02 0.14,0.01 0.87,0.06 0.95,0.08 0.08,0.02 0.2,0.04 0.18,0.24 -0.02,0.21 -0.18,1 -0.31,1.25 C 10.63,3.71 10.33,4.2 9.71,4.87 9.56,5.04 9.53,5.45 9.7,5.62 9.87,5.77 10.15,5.98 10.68,5.49 11.22,4.99 11.62,4.49 12.13,4.16 12.44,3.95 12.96,3.58 13.08,3.48 13.2,3.39 13.46,3.19 13.7,3.05 13.94,2.91 15,2.53 15,2.53 M 9.48,2.05 c -0.02,0 -0.22,0.03 -0.49,0.08 -0.21,0.14 -0.5,0.33 -0.8,0.52 0.01,0.03 0.03,0.05 0.04,0.07 0.06,0.07 0.23,0.13 0.43,0 0.09,-0.06 0.52,-0.38 0.94,-0.69 -0.05,0 -0.09,0.01 -0.12,0.01 m 0.6,-0.01 c -0.04,-0 -0.07,-0.01 -0.1,-0.01 -0.05,-0 -0.09,-0.01 -0.12,-0.01 -0.02,-0 -0.04,-0 -0.07,-0 -0.21,0.16 -0.44,0.33 -0.63,0.47 0.07,0.06 0.24,0.09 0.42,-0.04 0.06,-0.04 0.26,-0.21 0.5,-0.42 M 9.37,0.48 c 0.12,-0.03 0.72,-0.14 1.25,-0.24 0.13,-0.02 0.26,-0.05 0.37,-0.07 -0.03,-0.01 -0.07,-0.02 -0.1,-0.02 -0.22,-0.02 -0.88,0.05 -1.13,0.08 C 9.51,0.26 8.99,0.33 8.64,0.48 8.6,0.5 8.55,0.55 8.48,0.64 8.92,0.56 9.3,0.5 9.37,0.48 M 8.21,2.25 C 7.37,2.39 7.06,2.45 6.94,2.48 6.85,2.57 6.74,2.65 6.64,2.74 6.45,2.89 6.49,3.13 6.55,3.21 6.62,3.3 6.82,3.38 7.05,3.25 7.21,3.16 8.12,2.56 8.72,2.17 8.56,2.19 8.39,2.22 8.21,2.25 M 9.09,12.41 C 9.06,11.55 8.35,10.86 7.48,10.86 c -0.87,0 -1.58,0.69 -1.62,1.55 z M 0,12.6 V 15 h 10.17 l 1.56,-2.4 z m 3.98,-2.42 c 0,0.89 -0.72,1.62 -1.62,1.62 -0.89,0 -1.62,-0.72 -1.62,-1.62 0,-0.9 0.72,-1.62 1.62,-1.62 0.89,0 1.62,0.73 1.62,1.62 M 7.41,6.74 c 0,0.9 -0.72,1.62 -1.62,1.62 -0.89,0 -1.62,-0.72 -1.62,-1.62 0,-0.89 0.72,-1.62 1.62,-1.62 0.89,0 1.62,0.73 1.62,1.62" />
</svg>
