<svg xmlns="http://www.w3.org/2000/svg" viewBox="0 0 15 15">
  <path d="M5 0C5.55 0 6 0.45 6 1L6 7L14.5 7C14.78 7 15 7.22 15 7.5L15 8.5C15 9.38 14.4 10.15 13.54 10.36L11.73 10.82C11.67 10.83 11.61 10.86 11.55 10.9C11.33 11.07 11.29 11.38 11.45 11.6L14 15L3 15L3.72 12.22C3.95 11.32 3.53 10.38 2.7 9.95L1.54 9.35C1.21 9.18 1 8.83 1 8.46L1 1C1 0.45 1.45 0 2 0ZM10.5 0C10.84 0.94 11.1 1.61 11.3 2C11.89 3.17 12.5 3.49 12.5 4.4C12.5 5.31 11.5 6 10.5 6C9.5 6 8.5 5.31 8.5 4.4C8.5 3.49 9.11 3.17 9.7 2C9.9 1.61 10.16 0.94 10.5 0Z"/>
</svg>