<svg viewBox="0 0 15 15" xmlns="http://www.w3.org/2000/svg">
  <path d="m7.5 15c4.142 0 7.5-3.358 7.5-7.5 0-3.734-2.986-7.5-7.5-7.5-3.804 0-7.5 3.049-7.5 7.5 0 4.142 3.358 7.5 7.5 7.5zm6.828-6.799c-0.03244 0.9079-0.3348 1.748-0.7831 2.552l-2.837 0.405-1.265-1.649 0.8414-2.59 1.936-0.636zm-6.51-5.568 2.473-1.405c0.8193 0.4239 1.604 0.9334 2.299 1.668l-0.5632 2.781-2.003 0.6581-2.206-1.603zm1.196 7.363 1.203 1.568-1.074 2.527c-1.034 0.3083-2.128 0.3167-3.286 0l-1.074-2.527 1.203-1.568zm-4.246-8.715 2.414 1.352v2.1l-2.206 1.603-2.003-0.6581-0.5324-2.709c0.6095-0.692 1.344-1.286 2.328-1.687zm-4.028 6.88 2.04-1.877 1.936 0.6359 0.8414 2.59-1.265 1.649-2.757-0.4103c-0.4314-0.7375-0.6967-1.6-0.7948-2.587z"/>
</svg>
