<svg viewBox="0 0 15 15" xmlns="http://www.w3.org/2000/svg">
 <path d="m2 0v2h-2l2 2h1.199l2.801 2.801-0.25 0.75 3 1.199-1.199-3-0.75 0.25-2.801-2.801v-1.199l-2-2zm5.5 0c-1.19 0-2.315 0.2781-3.314 0.7715l0.8145 0.8145v1.014c0.7501-0.3834 1.6-0.5996 2.5-0.5996 3.038 0 5.5 2.462 5.5 5.5s-2.462 5.5-5.5 5.5-5.5-2.462-5.5-5.5c0-0.9002 0.2162-1.75 0.5996-2.5h-1.014l-0.8145-0.8145c-0.4934 0.9996-0.7715 2.124-0.7715 3.314 0 4.142 3.358 7.5 7.5 7.5s7.5-3.358 7.5-7.5-3.358-7.5-7.5-7.5zm0 3.5c-0.5289 0-1.034 0.1026-1.496 0.2891l1.225 1.225c0.08891-0.009572 0.18-0.01367 0.2715-0.01367 1.381 0 2.5 1.119 2.5 2.5s-1.119 2.5-2.5 2.5-2.5-1.119-2.5-2.5c0-0.09145 0.004102-0.1826 0.01367-0.2715l-1.225-1.225c-0.1865 0.4621-0.2891 0.9673-0.2891 1.496 0 2.209 1.791 4 4 4s4-1.791 4-4-1.791-4-4-4z"/>
</svg>
