<svg xmlns="http://www.w3.org/2000/svg" viewBox="0 0 15 15">
<path d="M 3 0 C 2.45 0 2 0.45 2 1 L 2 14 C 2 14.55 2.45 15 3 15 L 13 15 L 13 14 L 12.25 13.25 L 13 12.5 L 13 0.5 C 13 0.22 12.78 0 12.5 0 L 3 0 Z M 7.5 2 C 8.03 2 8.5 2.47 8.5 3 C 8.5 3.53 8.03 4 7.5 4 C 6.97 4 6.5 3.53 6.5 3 C 6.5 2.47 6.97 2 7.5 2 Z M 5.17 4.67 L 7.83 4.67 C 8.17 4.67 8.5 5 8.5 5.33 L 8.5 8 C 8.5 9.33 9.83 9.33 9.83 9.33 L 9.83 10 L 5.17 10 L 5.17 9.33 C 5.17 9.33 6.5 9.33 6.5 8 L 6.5 6.67 C 6.5 5.33 5.17 5.33 5.17 5.33 L 5.17 4.67 Z M 3 12.5 L 12 12.5 L 11.25 13.25 L 12 14 L 3 14 L 3 12.5 Z" />
</svg>