<svg viewBox="0 0 15 15" xmlns="http://www.w3.org/2000/svg">
 <path d="m12.91 0c-1.061 0.01567-2.097 0.725-2.609 2l0.001953 0.003906-0.9004-0.001953-0.4004 1h1.051c-0.0406 0.332-0.0406 0.668 0 1h-0.6484l-0.4023 1h1.303c0.817 2.04 2.999 2.639 4.459 1.219l-0.5137-0.916c-0.873 1.09-2.19 0.8293-2.84-0.3027h1.619l0.4004-1h-2.359c-0.0496-0.329-0.0496-0.671 0-1h2.76l0.3984-1h-2.82c0.745-1.31 2.159-1.252 2.939-0.2852 0 0 0.3936-0.9578 0.3926-0.9688-0.5475-0.5175-1.193-0.7575-1.83-0.748zm-6.408 6-0.1094 0.009766c-0.56 0.1-0.5206 1 0.1094 0.9902h0.5v0.7207l-2.74 1.559-0.5195-1.279h0.7207l0.1094-0.009766c0.56-0.1 0.5206-1-0.1094-0.9902h-2.031l-0.1191 0.009766c-0.56 0.1-0.5209 1 0.1191 0.9902h0.2305l0.4297 1.08-0.1797-0.04102c-0.14-0.02-0.2702-0.03906-0.4102-0.03906-1.38 0-2.5 1.13-2.5 2.5 0 1.38 1.12 2.5 2.5 2.5 1.37 0 2.51-1.12 2.51-2.5 0-0.47-0.1489-0.9091-0.3789-1.289l2.479-1.4 0.3906 0.4004-0.1602 0.07812c-0.79 0.42-1.34 1.251-1.34 2.211 0 1.38 1.13 2.5 2.51 2.5 1.37 0 2.49-1.12 2.49-2.5 0-1.3-0.9998-2.351-2.26-2.471l-0.7402-0.7402v-1.879c-0.04-0.23-0.25-0.4102-0.5-0.4102h-1zm-4 4.01c0.83 0 1.51 0.6602 1.51 1.49 0 0.84-0.6798 1.5-1.51 1.5-0.84 0-1.5-0.66-1.5-1.5 0-0.83 0.66-1.49 1.5-1.49zm6.01 0c0.83 0 1.49 0.6602 1.49 1.49 0 0.84-0.6602 1.5-1.49 1.5-0.84 0-1.51-0.66-1.51-1.5 0-0.83 0.6698-1.49 1.51-1.49z"/>
</svg>
