<svg viewBox="0 0 15 15" xmlns="http://www.w3.org/2000/svg">
 <path d="m10.3 2.002-0.9-0.0015-0.4 1h1.051c-0.0406 0.332-0.0406 0.668 0 1h-0.649l-0.402 1h1.302c0.817 2.04 3 2.64 4.46 1.22l-0.514-0.916c-0.873 1.09-2.19 0.828-2.84-0.304h1.62l0.4-1h-2.36c-0.0496-0.329-0.0496-0.671 0-1h2.76l0.398-1h-2.82c0.745-1.31 2.16-1.251 2.94-0.284 0 0 0.394-0.958 0.393-0.969-1.46-1.38-3.62-0.7885-4.44 1.252zm-4.8 3.998c-0.28 0-0.5 0.22-0.5 0.5s0.22 0.5 0.5 0.5h0.641l1.67 5h-1l-1.04-3.08c0.14-0.09 0.23-0.25 0.23-0.42 0-0.28-0.22-0.5-0.5-0.5h-1.5c-0.28 0-0.5 0.22-0.5 0.5s0.22 0.5 0.5 0.5h0.689l1.36 3.72c0.09 0.17 0.259 0.279 0.449 0.279h4c0.19 0 0.359-0.11 0.449-0.27l2.02-3c0.15-0.3-0.0316-0.661-0.352-0.721l-5.1-1.02-0.549-1.65c-0.06-0.2-0.251-0.34-0.471-0.34zm-3 2.99c-1.38 0-2.5 1.13-2.5 2.51s1.12 2.51 2.5 2.51 2.5-1.13 2.5-2.51-1.12-2.51-2.5-2.51zm0 0.93c0.87 0 1.57 0.7 1.57 1.58s-0.7 1.58-1.57 1.58-1.57-0.7-1.57-1.58 0.7-1.58 1.57-1.58zm11 1.08c-0.82 0-1.5 0.68-1.5 1.51s0.68 1.5 1.5 1.5 1.5-0.68 1.5-1.5c0-0.83-0.68-1.51-1.5-1.51zm0 0.811c0.39 0 0.689 0.309 0.689 0.699s-0.309 0.701-0.689 0.701c-0.39 0-0.689-0.311-0.689-0.701s0.309-0.699 0.689-0.699z"/>
</svg>
