<svg xmlns="http://www.w3.org/2000/svg" viewBox="0 0 15 15">
<path d="M 1.14 0C0.88 0 0.66 0.22 0.66 0.49C0.66 0.71 0.75 0.81 0.83 0.87C0.74 0.98 0.69 1.15 0.69 1.34C0.69 1.58 0.83 1.79 1.05 1.9C0.97 2.02 0.92 2.16 0.92 2.3C0.92 2.61 1.12 2.89 1.41 2.99C1.3 3.16 1.23 3.36 1.23 3.57C1.23 3.98 1.51 4.32 1.87 4.49L1.82 4.47L1.81 4.47C1.88 4.5 1.94 4.54 2.01 4.55L1.99 5.18C1.68 5.16 1.35 5.05 1.15 4.74L0.33 5.07C0.13 5.15 0 5.33 0 5.54C0 5.73 0.11 5.9 0.27 5.98C0.21 6.11 0.21 6.26 0.24 6.4C0.29 6.59 0.44 6.75 0.62 6.81C0.79 6.88 1 6.87 1.16 6.77C1.25 6.94 1.41 7.05 1.61 7.05C1.79 7.05 1.95 6.95 2.04 6.78L2.55 5.76C2.58 5.71 2.82 5.3 3.26 5.3L3.69 5.3L3.75 5.3C4.39 5.3 4.78 5.06 4.99 4.85C5.29 4.54 5.5 4.05 5.5 3.62C5.5 3.43 5.58 3.34 5.78 3.31L6.41 3.31L6.22 2.98L6.05 2.69C6.08 2.53 6.06 2.37 5.99 2.21C5.89 1.98 5.69 1.8 5.44 1.74C5.37 1.73 5.31 1.72 5.25 1.72C5.1 1.72 4.96 1.76 4.83 1.83C4.75 1.88 4.69 1.93 4.63 1.99L4.45 2.21L4.37 2.28L4.31 2.36C4.32 2.37 4.34 2.39 4.36 2.42L4.43 2.5C4.43 2.5 4.45 2.53 4.46 2.55C4.49 2.61 4.52 2.65 4.54 2.69C4.55 2.72 4.57 2.77 4.58 2.81L4.59 2.84C4.62 2.92 4.65 3.03 4.64 3.17L4.1 3.16C4.09 3.13 4.09 3.09 4.08 3.06L4.06 3.04C4.06 3.02 4.05 2.99 4.04 2.97C4.03 2.95 4.01 2.92 4 2.89C3.98 2.87 3.98 2.86 3.96 2.85L3.94 2.81C3.9 2.77 3.87 2.74 3.84 2.71L1.45 0.11L1.43 0.1L1.42 0.09C1.34 0.03 1.24 0 1.14 0ZM5.31 2.29C5.43 2.29 5.53 2.4 5.53 2.52C5.53 2.64 5.43 2.74 5.31 2.74C5.19 2.74 5.09 2.64 5.09 2.52C5.09 2.4 5.19 2.29 5.31 2.29ZM7.2 3.31L4.33 6.18C3.52 6.23 2.88 6.9 2.88 7.72L2.88 7.95L3.11 7.95C3.93 7.95 4.59 7.31 4.64 6.49L4.87 6.27C4.82 6.71 4.97 7.18 5.3 7.52L5.47 7.68L5.61 7.54L5.63 7.52C6.21 6.94 6.23 6.05 5.7 5.43L6.07 5.06C6.03 5.51 6.17 5.97 6.51 6.31L6.68 6.47L6.83 6.31C7.4 5.74 7.43 4.82 6.91 4.21L7.5 3.62L7.51 3.62L7.2 3.31ZM10.67 7.12L10.67 7.13L10.66 7.13C8.93 7.42 9.05 10.33 10.43 10.09C10.84 10.03 11.14 9.66 11.18 9.24C11.23 8.8 11.33 7.12 10.72 7.12L10.71 7.12L10.7 7.12L10.68 7.12L10.67 7.12ZM12.4 7.12C11.83 7.17 11.92 8.81 11.97 9.24C12.01 9.66 12.31 10.03 12.71 10.09C14.09 10.33 14.22 7.42 12.49 7.13C12.47 7.12 12.45 7.12 12.43 7.12L12.4 7.12ZM8.47 10.14C8.46 10.14 8.45 10.15 8.43 10.16C8.07 10.47 8.09 11.23 8.3 11.79C8.42 12.1 8.67 12.31 8.99 12.31C9.39 12.31 9.73 11.93 9.73 11.46C9.73 11.23 9.65 11.03 9.51 10.88C9.32 10.63 8.76 10.15 8.52 10.14L8.49 10.14L8.48 10.14C8.48 10.14 8.48 10.14 8.48 10.14L8.47 10.14C8.47 10.14 8.47 10.14 8.47 10.14ZM14.64 10.14C14.38 10.15 13.82 10.63 13.63 10.88C13.5 11.03 13.41 11.23 13.41 11.46C13.41 11.93 13.75 12.31 14.16 12.31C14.48 12.31 14.73 12.1 14.85 11.79C15.06 11.23 15.07 10.47 14.73 10.16C14.7 10.14 14.67 10.14 14.64 10.14ZM11.58 10.54C11.11 10.54 10.71 10.86 10.58 11.27C10.43 11.81 10.52 12.43 9.84 12.77C9.28 12.95 9.05 13.22 9.05 13.85C9.05 14.35 9.49 14.9 10.06 14.97C10.68 15.06 11.18 14.94 11.58 14.71C11.97 14.94 12.46 15.06 13.1 14.97C13.66 14.9 14.1 14.36 14.1 13.85C14.1 13.21 13.88 12.96 13.32 12.78C12.69 12.47 12.72 11.86 12.58 11.3C12.46 10.87 12.05 10.54 11.58 10.54 Z" />
</svg>
