<svg xmlns="http://www.w3.org/2000/svg" viewBox="0 0 15 15">
<path d="M9.57 0C8.47 0 7.57 0.89 7.57 2C7.57 3.1 8.47 4 9.57 4C10.58 4 11.42 3.24 11.55 2.29C11.57 2.12 11.7 1.97 11.85 1.93L15 1.14L14.72 0L12.14 0L12.14 0.29C12.14 0.45 12.01 0.58 11.85 0.58L11.28 0.58C11.12 0.58 11 0.45 11 0.29L11 0L9.57 0ZM9.57 1.14A0.85 0.85 0 0 1 10.43 2A0.85 0.85 0 0 1 9.57 2.86A0.85 0.85 0 0 1 8.71 2A0.85 0.85 0 0 1 9.57 1.14ZM3.34 4.66L3.34 4.68L3.33 4.68C1.07 5.06 1.22 8.85 3.03 8.54C3.56 8.46 3.95 7.98 4 7.43C4.07 6.85 4.2 4.66 3.41 4.66L3.4 4.66L3.38 4.66L3.35 4.66L3.34 4.66ZM5.6 4.66C4.86 4.73 4.98 6.86 5.04 7.43C5.09 7.98 5.48 8.46 6 8.54C7.81 8.85 7.98 5.06 5.71 4.68C5.69 4.67 5.66 4.66 5.63 4.66L5.6 4.66ZM0.47 8.6C0.45 8.61 0.44 8.62 0.42 8.63C-0.06 9.04 -0.03 10.03 0.25 10.76C0.41 11.17 0.73 11.43 1.15 11.43C1.67 11.43 2.12 10.95 2.12 10.33C2.12 10.03 2.01 9.76 1.83 9.58C1.58 9.25 0.84 8.62 0.54 8.6L0.5 8.6L0.49 8.6L0.48 8.6L0.47 8.6ZM8.52 8.6C8.19 8.62 7.45 9.25 7.2 9.58C7.03 9.76 6.91 10.03 6.91 10.33C6.91 10.95 7.36 11.43 7.9 11.43C8.31 11.43 8.64 11.17 8.79 10.76C9.07 10.03 9.09 9.04 8.64 8.63C8.6 8.6 8.56 8.6 8.52 8.6ZM4.53 9.13C3.91 9.13 3.39 9.55 3.22 10.08C3.03 10.79 3.14 11.59 2.26 12.04C1.52 12.28 1.22 12.63 1.22 13.45C1.22 14.11 1.8 14.82 2.54 14.91C3.36 15.03 4 14.87 4.53 14.57C5.04 14.87 5.67 15.03 6.51 14.91C7.24 14.82 7.82 14.12 7.82 13.45C7.82 12.62 7.53 12.29 6.79 12.05C5.98 11.65 6.02 10.85 5.83 10.12C5.67 9.56 5.15 9.13 4.53 9.13Z"/>
</svg>