<svg viewBox="0 0 15 15" xmlns="http://www.w3.org/2000/svg">
  <path d="m3 0v1h-1c-1 0-2 1-2 2s1 2 2 2h1v2h-1c-1 0-1-1-1-1h-1c0 1 1 2 2 2h1v1h1v-1h1c1 0 2-1 2-2s-1-2-2-2h-1v-2h1c1 0 1 1 1 1h1c0-1-1-2-2-2h-1v-1zm8 1-3 1.5 3 1.5v-1c1.044 0.06692 1.319 1.149 1 2h1c0.2994-1.198-0.2151-2.933-2-3zm-9 1h1v2h-1c-0.5 0-1-0.5-1-1s0.5-1 1-1zm2 3h1c0.5 0 1 0.5 1 1s-0.5 1-1 1h-1zm5.195 3.992h-0.9453l-0.5 1h1.271c-0.02961 0.3519-0.02751 0.673-4e-7 1h-0.7715l-0.5 1h1.445c0.8313 3.089 3.888 3.963 5.719 1.758l-0.5352-0.959c-1.228 1.986-3.368 1.386-4.129-0.7988h2.75l0.5-1h-3.473c-0.03785-0.3538-0.03483-0.6733-4e-6 -1h3.723l0.5-1h-4.002c0.7626-2.19 2.922-2.793 4.148-0.7715l0.5078-1c-1.825-2.179-4.876-1.325-5.709 1.771zm-7.195 1.008c-0.2994 1.198 0.2151 2.933 2 3v1l3-1.5-3-1.5v1c-1.044-0.06692-1.319-1.149-1-2z"/>
</svg>
