<svg version="1.1" viewBox="0 0 15 15" xmlns="http://www.w3.org/2000/svg">
 <path d="m12.91 0c-1.061 0.01567-2.097 0.725-2.609 2l0.001953 0.003906-0.9004-0.001953-0.4004 1h1.051c-0.0406 0.332-0.0406 0.668 0 1h-0.6484l-0.4023 1h1.303c0.817 2.04 2.999 2.639 4.459 1.219l-0.5137-0.916c-0.873 1.09-2.19 0.8293-2.84-0.3027h1.619l0.4004-1h-2.359c-0.0496-0.329-0.0496-0.671 0-1h2.76l0.3984-1h-2.82c0.745-1.31 2.159-1.252 2.939-0.2852 0 0 0.3936-0.9578 0.3926-0.9688-0.5475-0.5175-1.193-0.7575-1.83-0.748zm-9.549 5c-0.21 0-0.3988 0.1398-0.4688 0.3398l-0.8906 2.66c-0.55 0-1 0.45-1 1v3h1v1c0 0.55 0.45 1 1 1s1-0.45 1-1v-1h3v1c0 0.55 0.45 1 1 1s1-0.45 1-1v-1h1v-3c0-0.55-0.45-1-1-1l-0.8906-2.66c-0.07-0.2-0.2588-0.3398-0.4688-0.3398h-4.281zm0.2598 1h3.762l0.6191 2h-5l0.6191-2zm-0.6191 3c0.55 0 1 0.45 1 1s-0.45 1-1 1-1-0.45-1-1 0.45-1 1-1zm5 0c0.55 0 1 0.45 1 1s-0.45 1-1 1-1-0.45-1-1 0.45-1 1-1z"/>
</svg>
